<?xml version="1.0" encoding="UTF-8"?>
<svg xmlns="http://www.w3.org/2000/svg" version="1.1" viewBox="0 0 906.7 236.5">
  <defs>
    <style>
      .cls-1 {
        fill: #231f20;
      }
    </style>
  </defs>
  <!-- Generator: Adobe Illustrator 28.7.1, SVG Export Plug-In . SVG Version: 1.2.0 Build 142)  -->
  <g>
    <g id="Layer_1">
      <path class="cls-1" d="M0,111.1c0-19,2.9-35.9,8.7-50.7,5.8-14.7,13.6-26.9,23.4-36.4C41.8,14.5,53.1,7.8,65.9,3.8,78.5,0,91.7-1,105.6,1c14,2,26.9,6.6,39,13.8,11.8,7,21.6,15.6,29.4,25.7l-35.3,49.9c-3.3-5.7-7.4-10.1-12.5-13.4-5-3.3-10.7-5.3-17-5.9-5.1-.5-10,0-14.5,1.9-4.5,1.8-8.5,4.6-12,8.5-3.4,3.9-6.2,8.9-8.1,14.8-2,5.9-2.9,12.7-2.9,20.2s1,14.3,3.1,20.3c2,6,4.8,11.2,8.2,15.7,3.4,4.4,7.4,7.8,12,10.3,4.5,2.4,9.3,3.7,14.2,3.9,7,.3,12.9-1.2,17.9-4.5,4.9-3.3,8.8-7.2,11.6-11.8l35.3,54.7c-7.6,9.5-17,17.2-28.4,22.9-11.5,5.8-24.8,8.8-39.9,8.8s-27.1-2.9-39.7-8.7c-12.8-5.9-24.1-14.4-33.8-25.3-9.8-11.1-17.6-24.4-23.4-39.8C2.9,147.1,0,129.9,0,111.1Z"/>
      <path class="cls-1" d="M189.2,16.9l54,7.7v146.4l49.4,2.2v57.7l-103.4-.4V16.9Z"/>
      <path class="cls-1" d="M295.3,130.6c0-15.9,2.3-30,6.9-42.4,4.5-12.3,10.7-22.4,18.6-30.4,7.8-7.9,16.9-13.6,27.3-17,10.3-3.4,21.2-4.3,32.9-2.8,11.5,1.5,22,5.1,31.5,10.8,9.4,5.7,17.6,13,24.4,22,6.7,8.9,12,19.3,15.7,31.3,3.7,11.9,5.6,24.9,5.6,39.2s-1.9,27.2-5.6,38.9c-3.8,11.7-9,21.7-15.7,30-6.8,8.4-14.9,14.9-24.4,19.5-9.6,4.7-20.1,7-31.5,7-11.6,0-22.6-2.4-32.9-7.3-10.4-5-19.5-12-27.3-21.2-7.8-9.3-14-20.5-18.6-33.7-4.6-13.2-6.9-27.8-6.9-43.7ZM351.5,134.2c0,6.3.8,12.1,2.2,17.4,1.5,5.3,3.6,9.9,6.2,13.8,2.6,3.9,5.7,6.9,9.4,9.1,3.6,2.2,7.5,3.4,11.6,3.5,4.1.2,7.9-.7,11.4-2.6,3.4-1.9,6.4-4.6,9-8.2,2.5-3.5,4.5-7.8,5.9-12.8,1.4-5,2.1-10.5,2.1-16.6s-.7-11.4-2.1-16.5c-1.4-5.1-3.4-9.4-5.9-13-2.6-3.6-5.5-6.6-9-8.8-3.5-2.2-7.3-3.6-11.4-3.9-4.1-.4-8,.3-11.6,1.9-3.6,1.6-6.8,4.1-9.4,7.4-2.6,3.3-4.7,7.4-6.2,12.5-1.5,5-2.2,10.6-2.2,16.7Z"/>
      <path class="cls-1" d="M514.7,236.5c-5,0-9.9-.6-14.8-1.8-4.9-1.2-9.7-3-14.3-5.4-4.6-2.4-9-5.3-13.2-8.5-4.2-3.3-7.9-7-11.3-11l26.5-38.5c3,4.6,6.9,8.7,11.8,12.3,4.9,3.6,9.8,5.5,14.9,5.7s4.4-.4,6.3-1.5c1.9-1.1,2.8-3.1,2.8-6.2s-.3-3-.9-4.2c-.6-1.2-1.7-2.4-3.3-3.7-1.6-1.3-3.8-2.7-6.6-4.3-2.8-1.6-6.4-3.5-10.7-5.7-4.2-2.2-8.3-4.7-12.2-7.7-3.9-2.9-7.5-6.5-10.5-10.7s-5.6-9.2-7.4-14.9c-1.8-5.7-2.8-12.6-2.8-20.4s1.7-20.3,5-27.6,7.5-13.1,12.6-17.4c5.1-4.3,10.7-7.1,17-8.4,6.2-1.3,12.2-1.6,18.2-.9s15.9,4.2,24,9.5c7.9,5.2,14.9,12.2,20.8,20.8l-24.2,33.3c-2.7-5-6-8.9-9.9-11.7-3.9-2.8-7.5-4.4-10.7-4.7-3-.3-5.4,0-7.2,1.1-1.8,1-2.8,2.9-2.8,5.7s1,4.6,2.9,6.1c1.9,1.5,5,3.3,9.2,5.6,4.3,2.3,8.8,4.9,13.5,7.8,4.7,2.9,8.9,6.5,12.8,10.8,3.9,4.3,7.1,9.4,9.5,15.4,2.5,5.9,3.7,13.2,3.7,21.8s-1.4,18.7-4.1,26.1c-2.8,7.4-6.4,13.6-10.9,18.5-4.6,4.9-9.8,8.7-15.6,11.1-5.9,2.5-11.9,3.7-18.1,3.7Z"/>
      <path class="cls-1" d="M581.8,67.2l75.4,9.4v43.5l-40.8-3.7v13.8l32.2,2.6v40.9l-32.2-1.6v15l40.8,1.5v43.5l-75.4-.3V67.2Z"/>
      <path class="cls-1" d="M659.4,133.5l49.7,4v39.1l-49.7-2.4v-40.6Z"/>
      <path class="cls-1" d="M767.9,236.5c-8,0-15-1.6-21-4.7-6.1-3.2-11.2-7.6-15.3-13.2-4.1-5.6-7.2-12.2-9.2-19.9-2-7.7-3.1-15.9-3.1-24.7v-90.2l35.5,3.7v82.7c0,7,1.2,12.4,3.6,16.4,2.4,4,5.7,6,10,6.1,4.3.1,7.6-1.7,9.9-5.4,2.3-3.7,3.4-9,3.4-15.8v-81.1l32.4,3.4v84.3c0,8.2-1,15.9-2.9,23-1.9,7.1-4.8,13.3-8.6,18.5-3.8,5.2-8.6,9.4-14.4,12.4-5.8,3.1-12.6,4.6-20.5,4.6Z"/>
      <path class="cls-1" d="M858.7,189.3v43.4h-33.7V94.6l43,4.1c4.9.5,9.7,1.6,14.4,3.5,4.6,1.9,8.8,4.7,12.4,8.4,3.6,3.7,6.5,8.5,8.7,14.2,2.2,5.8,3.3,12.9,3.3,21.4s-1.1,14.9-3.2,20.5c-2.1,5.6-5,10.1-8.5,13.5-3.6,3.5-7.7,5.9-12.4,7.4-4.7,1.5-9.6,2.1-14.6,2l-9.3-.3ZM858.7,133.1v21.7l6.9.4c2.5.1,4.7-.6,6.8-2.2,2-1.6,3.1-4.4,3.1-8.4s-.3-3.9-.8-5.2c-.5-1.4-1.3-2.4-2.2-3.3-1-.8-2-1.4-3.2-1.8-1.2-.4-2.4-.6-3.6-.7l-6.9-.5Z"/>
    </g>
  </g>
</svg>